<svg width="938" height="40" viewBox="0 0 938 40" fill="none" xmlns="http://www.w3.org/2000/svg">
<path d="M2.656 31V10.072H18.272V31H14.56V13.208H6.368V31H2.656ZM29.7055 31.384C28.4042 31.384 27.1882 31.064 26.0575 30.424C24.9268 29.7627 24.0095 28.824 23.3055 27.608C22.6015 26.3707 22.2495 24.888 22.2495 23.16C22.2495 21.4107 22.6015 19.928 23.3055 18.712C24.0095 17.4747 24.9268 16.536 26.0575 15.896C27.1882 15.2347 28.4042 14.904 29.7055 14.904C31.0282 14.904 32.2548 15.2347 33.3855 15.896C34.5162 16.536 35.4335 17.4747 36.1375 18.712C36.8415 19.928 37.1935 21.4107 37.1935 23.16C37.1935 24.888 36.8415 26.3707 36.1375 27.608C35.4335 28.824 34.5162 29.7627 33.3855 30.424C32.2548 31.064 31.0282 31.384 29.7055 31.384ZM29.7055 28.376C30.8575 28.376 31.7642 27.896 32.4255 26.936C33.0868 25.976 33.4175 24.7173 33.4175 23.16C33.4175 21.5813 33.0868 20.312 32.4255 19.352C31.7642 18.392 30.8575 17.912 29.7055 17.912C28.5535 17.912 27.6468 18.392 26.9855 19.352C26.3455 20.312 26.0255 21.5813 26.0255 23.16C26.0255 24.7173 26.3455 25.976 26.9855 26.936C27.6468 27.896 28.5535 28.376 29.7055 28.376ZM38.2293 31L43.2213 22.808L38.5493 15.288H42.5173L44.2773 18.264C44.5119 18.6907 44.7466 19.1387 44.9813 19.608C45.2373 20.056 45.4826 20.4933 45.7173 20.92H45.8453C46.0373 20.4933 46.2399 20.056 46.4533 19.608C46.6666 19.1387 46.8693 18.6907 47.0613 18.264L48.5653 15.288H52.3733L47.7333 23.224L52.7253 31H48.7573L46.8373 27.896C46.5813 27.4267 46.3146 26.9573 46.0373 26.488C45.7813 26.0187 45.5146 25.56 45.2373 25.112H45.1093C44.8959 25.56 44.6719 26.0187 44.4373 26.488C44.2026 26.936 43.9679 27.4053 43.7333 27.896L42.0693 31H38.2293ZM61.2368 31.384C59.9354 31.384 58.7194 31.064 57.5888 30.424C56.4581 29.7627 55.5408 28.824 54.8368 27.608C54.1328 26.3707 53.7808 24.888 53.7808 23.16C53.7808 21.4107 54.1328 19.928 54.8368 18.712C55.5408 17.4747 56.4581 16.536 57.5888 15.896C58.7194 15.2347 59.9354 14.904 61.2368 14.904C62.5594 14.904 63.7861 15.2347 64.9168 15.896C66.0474 16.536 66.9648 17.4747 67.6688 18.712C68.3728 19.928 68.7248 21.4107 68.7248 23.16C68.7248 24.888 68.3728 26.3707 67.6688 27.608C66.9648 28.824 66.0474 29.7627 64.9168 30.424C63.7861 31.064 62.5594 31.384 61.2368 31.384ZM61.2368 28.376C62.3888 28.376 63.2954 27.896 63.9568 26.936C64.6181 25.976 64.9488 24.7173 64.9488 23.16C64.9488 21.5813 64.6181 20.312 63.9568 19.352C63.2954 18.392 62.3888 17.912 61.2368 17.912C60.0848 17.912 59.1781 18.392 58.5168 19.352C57.8768 20.312 57.5568 21.5813 57.5568 23.16C57.5568 24.7173 57.8768 25.976 58.5168 26.936C59.1781 27.896 60.0848 28.376 61.2368 28.376ZM76.6233 22.68C76.4739 23.9173 76.2713 24.9733 76.0153 25.848C75.7806 26.7227 75.4819 27.4587 75.1193 28.056H81.2953V18.2H77.1033L76.6233 22.68ZM74.0633 31V36.504H70.8633L70.5113 30.456V28.056H71.4073C71.6846 27.9067 71.9299 27.6613 72.1432 27.32C72.3779 26.9573 72.6019 26.36 72.8153 25.528C73.0286 24.6747 73.2313 23.4587 73.4233 21.88L74.1913 15.288H84.9753V28.056H87.3753V30.456L86.9913 36.504H83.8233V31H74.0633ZM96.6173 31V15.288H102.985C104.159 15.288 105.193 15.416 106.089 15.672C107.007 15.928 107.732 16.3547 108.265 16.952C108.799 17.5493 109.065 18.3493 109.065 19.352C109.065 20.12 108.841 20.8027 108.393 21.4C107.967 21.976 107.316 22.392 106.441 22.648V22.776C107.38 22.9893 108.159 23.3947 108.777 23.992C109.396 24.568 109.705 25.4 109.705 26.488C109.705 27.5333 109.417 28.3973 108.841 29.08C108.287 29.7413 107.529 30.232 106.569 30.552C105.609 30.8507 104.521 31 103.305 31H96.6173ZM100.233 21.656H102.633C103.657 21.656 104.393 21.4853 104.841 21.144C105.289 20.8027 105.513 20.3333 105.513 19.736C105.513 19.1173 105.3 18.6373 104.873 18.296C104.447 17.9547 103.732 17.784 102.729 17.784H100.233V21.656ZM100.233 28.504H103.049C104.116 28.504 104.884 28.3013 105.353 27.896C105.844 27.4907 106.089 26.9467 106.089 26.264C106.089 25.624 105.823 25.112 105.289 24.728C104.777 24.344 103.988 24.152 102.921 24.152H100.233V28.504ZM119.586 31V15.288H129.922V18.2H123.266V31H119.586ZM138.299 31.384C136.998 31.384 135.782 31.064 134.651 30.424C133.521 29.7627 132.603 28.824 131.899 27.608C131.195 26.3707 130.843 24.888 130.843 23.16C130.843 21.4107 131.195 19.928 131.899 18.712C132.603 17.4747 133.521 16.536 134.651 15.896C135.782 15.2347 136.998 14.904 138.299 14.904C139.622 14.904 140.849 15.2347 141.979 15.896C143.11 16.536 144.027 17.4747 144.731 18.712C145.435 19.928 145.787 21.4107 145.787 23.16C145.787 24.888 145.435 26.3707 144.731 27.608C144.027 28.824 143.11 29.7627 141.979 30.424C140.849 31.064 139.622 31.384 138.299 31.384ZM138.299 28.376C139.451 28.376 140.358 27.896 141.019 26.936C141.681 25.976 142.011 24.7173 142.011 23.16C142.011 21.5813 141.681 20.312 141.019 19.352C140.358 18.392 139.451 17.912 138.299 17.912C137.147 17.912 136.241 18.392 135.579 19.352C134.939 20.312 134.619 21.5813 134.619 23.16C134.619 24.7173 134.939 25.976 135.579 26.936C136.241 27.896 137.147 28.376 138.299 28.376ZM153.686 22.68C153.536 23.9173 153.334 24.9733 153.078 25.848C152.843 26.7227 152.544 27.4587 152.182 28.056H158.358V18.2H154.166L153.686 22.68ZM151.126 31V36.504H147.926L147.574 30.456V28.056H148.47C148.747 27.9067 148.992 27.6613 149.206 27.32C149.44 26.9573 149.664 26.36 149.878 25.528C150.091 24.6747 150.294 23.4587 150.486 21.88L151.254 15.288H162.038V28.056H164.438V30.456L164.054 36.504H160.886V31H151.126ZM167.274 31V15.288H170.954V20.664H172.618C173.876 20.664 174.996 20.8347 175.978 21.176C176.959 21.5173 177.727 22.0613 178.282 22.808C178.858 23.5547 179.146 24.5467 179.146 25.784C179.146 27.0427 178.858 28.056 178.282 28.824C177.727 29.592 176.959 30.1467 175.978 30.488C174.996 30.8293 173.876 31 172.618 31H167.274ZM170.954 28.152H172.394C174.506 28.152 175.562 27.352 175.562 25.752C175.562 24.216 174.506 23.448 172.394 23.448H170.954V28.152ZM181.546 31V15.288H185.226V31H181.546Z" fill="white"/>
<g opacity="0.4">
<rect x="908.5" y="5.5" width="29" height="29" rx="14.5" stroke="white"/>
<path d="M929.667 13.3333H916.333C915.413 13.3333 914.667 14.0795 914.667 15V15.8333C914.667 16.7538 915.413 17.5 916.333 17.5H929.667C930.587 17.5 931.333 16.7538 931.333 15.8333V15C931.333 14.0795 930.587 13.3333 929.667 13.3333Z" stroke="white" stroke-width="2" stroke-linecap="round" stroke-linejoin="round"/>
<path d="M916.333 17.5V25C916.333 25.442 916.509 25.866 916.821 26.1785C917.134 26.4911 917.558 26.6667 918 26.6667H928C928.442 26.6667 928.866 26.4911 929.178 26.1785C929.491 25.866 929.667 25.442 929.667 25V17.5" stroke="white" stroke-width="2" stroke-linecap="round" stroke-linejoin="round"/>
<path d="M921.333 20.8333H924.667" stroke="white" stroke-width="2" stroke-linecap="round" stroke-linejoin="round"/>
</g>
</svg>
